<svg width="21" height="24" viewBox="0 0 21 24" fill="none" xmlns="http://www.w3.org/2000/svg">
<path d="M20.4654 1.70881H17.3085V1.11446C17.3085 0.809246 17.0677 0.559113 16.7739 0.559113H4.22607C3.93225 0.559113 3.69146 0.809246 3.69146 1.11446V1.70881H0.536819C0.240795 1.70881 0 1.95894 0 2.26415V4.13442C0.00662739 7.83135 2.54492 10.95 6.0486 11.5765C6.55007 12.32 7.12445 13.0084 7.75184 13.6257V14.5345C7.75184 14.6928 7.81591 14.8351 7.91753 14.9361C7.42047 15.2046 7.02725 15.6474 6.80854 16.1867H5.69956C5.19146 16.1867 4.77835 16.6159 4.77835 17.1437V20.4023H4.59499C4.08689 20.4023 3.67378 20.8314 3.67378 21.3592V22.8944C3.67378 23.4222 4.08689 23.8514 4.59499 23.8514H16.405C16.9131 23.8514 17.3262 23.4222 17.3262 22.8944V21.3592C17.3262 20.8314 16.9131 20.4023 16.405 20.4023H16.2194V17.1437C16.2194 16.6159 15.8063 16.1867 15.2982 16.1867H14.1915C13.975 15.6452 13.5817 15.2046 13.0847 14.9361C13.1863 14.8351 13.2504 14.6928 13.2504 14.5345V13.6257C13.88 13.0084 14.4521 12.32 14.9536 11.5765C18.4551 10.95 20.9912 7.83364 21 4.13442V2.26415C21 1.95894 20.7592 1.70881 20.4654 1.70881ZM5.24227 10.2156C2.77246 9.32067 1.07585 6.87671 1.07143 4.13442V2.81949H3.69146V3.84986C3.69367 6.07123 4.22828 8.26277 5.24227 10.2156ZM19.9308 2.81949V4.13442C19.9242 6.879 18.2297 9.32297 15.7599 10.2179C16.7717 8.26736 17.3085 6.07582 17.3085 3.85216V2.81949H19.9308ZM12.3535 12.9717C12.243 13.0773 12.1811 13.2264 12.1811 13.3825V13.9608H8.82106V13.3825C8.82106 13.2264 8.757 13.0773 8.64433 12.9717C6.18115 10.6379 4.7651 7.31502 4.76068 3.84986V1.6698H16.2393V3.84986C16.2371 7.31502 14.8211 10.6379 12.3535 12.9717ZM15.1149 20.4H5.88513V19.3972H15.1149V20.4ZM16.2216 21.5474V22.7017H4.77835V21.5474H5.33284H5.88513H15.1149H15.7533H16.2216ZM13.3343 17.3318H15.1149V18.2498H5.88513V17.3318H7.66348L7.75405 16.8752C7.86009 16.3474 8.25773 15.9343 8.76583 15.8241L9.20545 15.7301V15.1655H11.7923V15.7278L12.232 15.8219C12.7423 15.932 13.1377 16.3428 13.2415 16.8706L13.3343 17.3318Z" fill="white"/>
</svg>
