<svg width="21" height="26" viewBox="0 0 21 26" fill="none" xmlns="http://www.w3.org/2000/svg">
<path d="M8.40502 25.718C8.36468 25.718 8.32434 25.7132 8.28163 25.706C3.64012 24.7663 0 20.5128 0 16.0214C0 12.1957 2.21634 9.65558 3.99606 7.61534C4.63914 6.8896 5.21814 6.12541 5.73307 5.32998L5.7568 5.29633C6.66802 4.07555 7.12363 2.56159 7.04294 1.03321L6.99311 0.0839844L7.86162 0.446854C8.82978 0.850577 9.68405 1.44655 10.4007 2.21554C11.6322 3.37144 12.5553 4.83494 13.0726 6.44983L13.0798 6.47386C13.7323 8.84813 13.915 11.2921 13.6232 13.7361C13.6113 13.9571 13.6682 14.4666 13.915 14.5844C14.0384 14.642 14.1974 14.5363 14.3089 14.4378C15.1513 13.6904 15.9273 11.0614 14.9188 7.79076L14.3351 5.89711L16.1717 7.40146C18.7155 9.53061 20.201 12.6691 20.2461 16.0118C20.2461 20.3951 16.7009 24.6318 12.1757 25.6651C11.8814 25.7348 11.5777 25.5786 11.4543 25.2998C11.3309 25.0211 11.4163 24.6894 11.6631 24.5092C11.9502 24.3001 12.1875 24.043 12.375 23.7426C13.1557 22.4786 12.7736 20.806 11.5255 20.0154C9.93321 18.922 9.1359 17.7973 8.73961 16.9418C6.96226 20.1908 7.45584 22.4041 7.46059 22.4281L7.47008 22.4786C7.60059 23.3245 8.07044 24.0959 8.76097 24.5957L9.15013 24.8769L8.96504 25.3431C8.86775 25.5738 8.64469 25.718 8.40502 25.718ZM8.06569 25.5714C8.06806 25.5738 8.07044 25.5762 8.07281 25.5762C8.07281 25.5738 8.06806 25.5738 8.06569 25.5714ZM11.9194 24.4948H11.917C11.917 24.4948 11.917 24.4948 11.9194 24.4948ZM6.7131 6.00285C6.1697 6.84394 5.55747 7.64898 4.89304 8.39875C3.23672 10.2996 1.18648 12.6499 1.18648 16.0214C1.18648 19.2921 3.53334 22.5218 6.69887 23.9397C6.50666 23.548 6.3714 23.125 6.30021 22.6901C6.21953 22.3272 5.65951 19.2969 8.44062 15.1419L9.52506 13.5222V15.4783C9.52743 15.5408 9.60337 17.2422 12.1733 19.0109C13.8083 20.0466 14.4086 22.1614 13.6279 23.9132C16.7816 22.4762 19.062 19.2896 19.062 16.0214C19.0288 13.539 18.1009 11.1791 16.4802 9.35999C16.8599 12.1236 16.148 14.4041 15.0897 15.3413C14.5652 15.8075 13.953 15.9277 13.412 15.673C12.553 15.2668 12.3963 14.2023 12.4391 13.6351L12.4414 13.6087C12.7167 11.3185 12.5482 9.03077 11.9384 6.80789C11.4804 5.38525 10.6641 4.09718 9.57964 3.08307L9.54879 3.05183C9.15251 2.62407 8.70639 2.2588 8.21519 1.96322C8.10603 3.4195 7.58873 4.82532 6.7131 6.00285Z" fill="#F2F2F2"/>
</svg>
