<svg width="17" height="18" viewBox="0 0 17 18" fill="none" xmlns="http://www.w3.org/2000/svg">
<g clip-path="url(#clip0)">
<path fill-rule="evenodd" clip-rule="evenodd" d="M4.69859 0.553318C7.19126 -0.364078 9.87766 -0.134729 12.0679 1.18111C14.7721 2.80405 15.7229 6.01493 16.563 8.84681C16.6994 9.30356 16.8279 9.73505 16.9603 10.1549C17.0354 10.3667 17.0018 10.6 16.8714 10.7827C16.7389 10.9712 16.5215 11.082 16.2882 11.082H15.4797C14.776 11.082 14.2047 11.6456 14.2047 12.3356V12.6758C13.9932 12.7788 12.3506 13.496 10.2967 11.9236L9.68986 12.6894C10.9293 13.6398 12.0699 13.9003 12.9495 13.9003C13.4714 13.9003 13.9023 13.8089 14.2047 13.7137V14.5786C14.2047 15.7331 13.2717 16.5708 11.9868 16.5708H11.2199C10.7296 16.5708 10.3303 17.5174 10.3303 17.9994H3.22393V16.5844C3.22393 15.0567 2.57754 14.0013 1.82835 12.7788C0.970446 11.3833 -0.000135422 9.80113 -0.000135422 7.27829C-0.000135422 4.19569 1.80068 1.61843 4.69859 0.553318ZM12.3091 8.56304C13.2757 8.56304 13.2144 6.29093 12.3091 6.29093C11.8386 6.29093 11.4591 6.79822 11.4591 7.42601C11.4591 8.0538 11.8386 8.56304 12.3091 8.56304Z" fill="#F2F2F2"/>
</g>
<defs>
<clipPath id="clip0">
<rect width="17" height="18" fill="white" transform="matrix(-1 0 0 1 17 0)"/>
</clipPath>
</defs>
</svg>
