<svg width="14" height="15" viewBox="0 0 14 15" fill="none" xmlns="http://www.w3.org/2000/svg">
<g clip-path="url(#clip0)">
<path d="M10.9621 0H0.871124V15H13.6753V5.88779L11.0617 3.592C11.0015 3.55546 10.9621 3.46303 10.9621 3.38779V0ZM8.84854 0.88779C8.84854 0.739467 8.96891 0.61049 9.14717 0.61049C9.3069 0.61049 9.4458 0.739467 9.4458 0.88779V3.72098C9.4458 3.8693 9.3069 3.99828 9.14717 3.99828C8.9666 3.99828 8.84854 3.8693 8.84854 3.72098V0.88779ZM6.69329 0.88779C6.69329 0.739467 6.81367 0.61049 6.99192 0.61049C7.15166 0.61049 7.29056 0.739467 7.29056 0.88779V3.72098C7.29056 3.8693 7.15166 3.99828 6.99192 3.99828C6.81136 3.99828 6.69329 3.8693 6.69329 3.72098V0.88779ZM4.54036 0.88779C4.54036 0.739467 4.66074 0.61049 4.83899 0.61049C4.99873 0.61049 5.13763 0.739467 5.13763 0.88779V3.72098C5.13763 3.8693 4.99873 3.99828 4.83899 3.99828C4.65843 3.99828 4.54036 3.8693 4.54036 3.72098V0.88779ZM2.38743 0.88779C2.38743 0.739467 2.50781 0.61049 2.68607 0.61049C2.8458 0.61049 2.9847 0.739467 2.9847 0.88779V3.72098C2.9847 3.8693 2.8458 3.99828 2.68607 3.99828C2.5055 3.99828 2.38743 3.8693 2.38743 3.72098V0.88779ZM2.14668 5.96303H12.3974C12.578 5.96303 12.696 6.092 12.696 6.24033V14.0542C12.696 14.2025 12.5756 14.3315 12.3974 14.3315H2.14668C1.96611 14.3315 1.84804 14.2025 1.84804 14.0542V6.24033C1.84804 6.092 1.96842 5.96303 2.14668 5.96303Z" fill="#4F4F4F"/>
<path d="M12.0988 6.51762H2.44763V13.7769H12.0988V6.51762Z" fill="#4F4F4F"/>
</g>
<defs>
<clipPath id="clip0">
<rect width="12.8041" height="15" fill="white" transform="translate(0.871124)"/>
</clipPath>
</defs>
</svg>
