<svg width="123" height="32" viewBox="0 0 123 32" fill="none" xmlns="http://www.w3.org/2000/svg">
<g clip-path="url(#clip0)">
<path d="M46.1695 29.6279C45.8288 29.6279 45.5555 29.7371 45.3574 29.9517C45.1614 30.1643 45.0623 30.4543 45.0623 30.8179C45.0623 31.1755 45.1633 31.4656 45.3614 31.6781C45.5614 31.8927 45.8328 32.002 46.1695 32.002C46.4943 32.002 46.7637 31.8927 46.9657 31.6801C47.1678 31.4676 47.2688 31.1775 47.2688 30.8199C47.2688 30.4583 47.1717 30.1663 46.9776 29.9537C46.7815 29.7371 46.5102 29.6279 46.1695 29.6279Z" fill="#F2F2F2"/>
<path d="M43.6383 29.6279C43.2976 29.6279 43.0243 29.7371 42.8262 29.9517C42.6301 30.1643 42.5311 30.4543 42.5311 30.8179C42.5311 31.1755 42.6321 31.4656 42.8302 31.6781C43.0302 31.8927 43.3016 32.002 43.6383 32.002C43.9631 32.002 44.2305 31.8967 44.4306 31.6881C44.6286 31.4795 44.7296 31.1874 44.7296 30.8199C44.7296 30.4524 44.6326 30.1603 44.4385 29.9497C44.2424 29.7351 43.973 29.6279 43.6383 29.6279Z" fill="#F2F2F2"/>
<path d="M52.0541 20.187H51.6956C52.0343 19.7281 52.5354 19.2711 53.191 18.8261C53.9298 18.3235 54.734 17.9381 55.5837 17.6798C55.6134 17.6718 55.6986 17.644 55.6986 17.644C55.6986 17.644 55.3421 15.6792 54.7994 15.4368C54.7756 15.4269 54.7261 15.4626 54.7003 15.4725C53.4267 15.9275 52.2938 16.5911 51.3292 17.4454C50.4419 18.2301 49.7328 19.142 49.2138 20.1552C49.1227 20.332 49.0811 20.5287 49.0792 20.7254V20.8863C49.0752 21.6115 49.6595 22.2015 50.3824 22.2015H51.7115C52.4384 22.2015 53.0068 22.3565 53.397 22.6605C53.7852 22.9625 53.9734 23.3876 53.9734 23.9598V25.5551C53.9734 25.9386 53.6624 26.2505 53.2802 26.2505H46.9796C46.5934 26.2505 46.2785 25.9366 46.2785 25.5472V21.4267C46.2785 20.9956 45.9299 20.646 45.5001 20.646H44.6207C44.1908 20.646 43.8422 20.9956 43.8422 21.4267V25.9545C43.8422 26.1174 43.7115 26.2485 43.5491 26.2485H40.3662C40.1839 26.2485 40.0374 26.1015 40.0374 25.9187V17.4732C40.0374 17.042 39.6888 16.6924 39.259 16.6924H38.3795C37.9497 16.6924 37.6011 17.042 37.6011 17.4732V27.2061C37.6011 27.7902 38.0745 28.265 38.6568 28.265H54.934C55.7501 28.265 56.4136 27.6014 56.4136 26.7809V23.6737C56.4116 21.3612 54.9459 20.187 52.0541 20.187Z" fill="#F2F2F2"/>
<path d="M72.6432 16.3328L72.4155 16.3705C72.3184 16.3209 72.2372 16.2493 72.1659 16.156C72.0926 16.0586 72.0569 15.9454 72.0569 15.8142C72.0569 15.6195 72.1104 15.4745 72.2194 15.3672C72.3303 15.26 72.4749 15.2083 72.6591 15.2083C72.9265 15.2083 73.182 15.2679 73.4177 15.3871L73.5246 15.4407L73.9029 14.4812L73.8178 14.4355C73.4771 14.2467 73.0493 14.1514 72.5422 14.1514C72.0193 14.1514 71.5955 14.2805 71.2805 14.5328C70.9597 14.7911 70.7953 15.1566 70.7953 15.6176C70.7953 15.8738 70.8666 16.1003 71.0052 16.2911C71.0825 16.3964 71.1716 16.4897 71.2726 16.5692L70.613 16.6765V17.6718L70.7517 17.6341C70.821 17.6142 71.1141 17.5665 72.1223 17.4473C72.9324 17.35 73.5207 17.2904 73.8732 17.2645L73.9762 17.2566V16.1659L73.8574 16.1758C73.5583 16.2017 73.1503 16.2553 72.6432 16.3328Z" fill="#F2F2F2"/>
<path d="M70.9597 24.2101H68.8344C68.3531 24.2101 67.9609 23.8187 67.9609 23.3339V15.258C67.9609 14.9242 67.6915 14.654 67.3588 14.654H66.1268C65.7941 14.654 65.5247 14.9242 65.5247 15.258V25.5332C65.5247 26.2564 65.3524 26.8226 65.0097 27.216C64.671 27.6054 64.1303 27.8021 63.4014 27.8021H62.9577C62.3893 27.8021 61.9456 27.6034 61.601 27.1961C61.2563 26.7888 61.082 26.2286 61.082 25.5352C61.082 25.0366 61.1276 24.4922 61.2187 23.9141C61.3177 23.2843 61.4564 22.6744 61.6287 22.1062C61.3039 21.6691 59.9154 21.8201 59.45 22.1042C59.4361 22.1121 59.4262 22.1499 59.4203 22.1638C59.1786 22.6386 58.9885 23.177 58.8518 23.769C58.7151 24.3611 58.6458 24.9491 58.6458 25.5193C58.6458 26.3557 58.8122 27.1067 59.141 27.7544C59.4718 28.406 59.959 28.9186 60.5889 29.2782C61.2167 29.6358 61.9634 29.8186 62.8072 29.8186H63.4628C66.2179 29.8186 67.7252 28.6107 67.9431 26.2286H72.9383C73.4335 26.2286 73.8356 25.8253 73.8356 25.3286V19.2115C73.8356 18.8777 73.5662 18.6076 73.2335 18.6076H72.0015C71.6687 18.6076 71.3994 18.8777 71.3994 19.2115V23.773C71.3934 24.0154 71.1993 24.2101 70.9597 24.2101Z" fill="#F2F2F2"/>
<path d="M80.7759 24.2101H80.1837C79.4231 24.2101 78.8051 23.5923 78.8051 22.8274V15.8739C78.8051 15.1984 78.2585 14.652 77.587 14.652C76.9136 14.652 76.3689 15.2004 76.3689 15.8739V24.8419C76.3689 25.6048 76.9849 26.2246 77.7474 26.2246H83.2141C83.9826 26.2246 84.6046 25.6008 84.6046 24.83V19.8294C84.6046 19.1539 84.0579 18.6076 83.3864 18.6076C82.713 18.6076 82.1683 19.1559 82.1683 19.8294V22.8154C82.1663 23.5863 81.5444 24.2101 80.7759 24.2101Z" fill="#F2F2F2"/>
<path d="M83.2577 27.5895C82.9111 27.5895 82.6358 27.6988 82.4397 27.9133C82.2436 28.1259 82.1446 28.416 82.1446 28.7796C82.1446 29.1372 82.2456 29.4272 82.4437 29.6398C82.6437 29.8544 82.9171 29.9636 83.2577 29.9636C83.5786 29.9636 83.844 29.8544 84.046 29.6418C84.2481 29.4292 84.3491 29.1391 84.3491 28.7815C84.3491 28.414 84.25 28.1219 84.054 27.9114C83.8579 27.6968 83.5885 27.5895 83.2577 27.5895Z" fill="#F2F2F2"/>
<path d="M103.778 20.336C103.463 19.7877 103.013 19.3565 102.443 19.0565C101.874 18.7585 101.234 18.6056 100.541 18.6056C100.125 18.6056 99.6379 18.6811 99.0912 18.8281C98.5446 18.9751 98.0197 19.1936 97.5344 19.4738L97.5087 19.4877L97.4948 19.5115C97.2769 19.8771 97.0927 20.3201 96.9461 20.8287C96.7996 21.3373 96.7243 21.8201 96.7243 22.2611C96.7243 22.9684 96.8412 23.624 97.0709 24.2081H93.9434V20.0261C93.9434 19.2433 93.3116 18.6075 92.5292 18.6075H91.5706C90.6199 18.6075 89.7682 18.7705 89.0393 19.0903C88.3045 19.4142 87.7301 19.887 87.326 20.4989C86.9239 21.1108 86.7179 21.828 86.7179 22.6346C86.7179 23.773 87.017 24.665 87.6073 25.2869C88.1975 25.9107 89.0492 26.2266 90.1386 26.2266H91.5052C91.4993 26.7173 91.3547 27.1067 91.0794 27.3849C90.7961 27.6709 90.3842 27.816 89.8553 27.816C89.479 27.816 89.1106 27.7743 88.76 27.6908C88.4114 27.6074 88.0351 27.4623 87.6429 27.2577C87.6429 27.2577 87.5716 27.2001 87.5459 27.208C87.0566 27.361 86.5793 29.0239 86.5793 29.0239C86.5793 29.0239 86.6466 29.0636 86.6684 29.0775C87.1319 29.3557 87.6231 29.5504 88.1242 29.6557C88.6214 29.761 89.2175 29.8146 89.8969 29.8146C91.1705 29.8146 92.1727 29.4888 92.8759 28.8451C93.5592 28.2193 93.9177 27.3392 93.9395 26.2246H100.072C100.842 26.2246 101.557 26.0557 102.195 25.724C102.835 25.3902 103.344 24.9174 103.704 24.3194C104.065 23.7214 104.247 23.024 104.247 22.2492C104.251 21.528 104.092 20.8843 103.778 20.336ZM101.797 22.136C101.817 22.6684 101.642 23.1889 101.28 23.5783C100.89 23.9975 100.389 24.2101 99.7904 24.2101C99.4933 24.2101 99.2358 24.0055 99.1605 23.7174C99.0516 23.3002 98.9981 22.9187 98.9981 22.577C98.9981 22.3803 99.0061 22.1876 99.0239 21.9969C99.0932 21.2399 99.725 20.628 100.484 20.6221C100.488 20.6221 100.492 20.6221 100.496 20.6221C100.892 20.6221 101.199 20.7631 101.436 21.0532C101.658 21.3234 101.779 21.687 101.797 22.136ZM91.5052 20.9936V24.2101H90.5902C90.1267 24.2101 89.7801 24.0809 89.5602 23.8247C89.3364 23.5644 89.2235 23.1432 89.2235 22.575C89.2235 21.9512 89.3918 21.4644 89.7266 21.1267C90.0593 20.7909 90.5347 20.6201 91.1368 20.6201C91.3408 20.6221 91.5052 20.789 91.5052 20.9936Z" fill="#F2F2F2"/>
<path d="M45.4922 7.82367V11.4176C45.4922 12.117 44.9277 12.6832 44.2305 12.6832C43.5333 12.6832 42.9688 12.117 42.9688 11.4176V7.75811C42.9688 7.04289 42.8599 6.5184 42.644 6.18265C42.4261 5.84689 42.0755 5.68001 41.5922 5.68001C41.107 5.68001 40.6791 5.8608 40.3068 6.22437C39.9344 6.58794 39.7462 7.12038 39.7462 7.82367V11.4256C39.7462 12.1189 39.1857 12.6832 38.4925 12.6832C37.8012 12.6832 37.2387 12.1209 37.2387 11.4256V4.69062C37.2387 4.1264 37.6943 3.66945 38.2568 3.66945H38.7242C39.2867 3.66945 39.7423 4.1264 39.7423 4.69062C40.4335 3.90786 41.2238 3.51846 42.1151 3.51846C42.6836 3.51846 43.1986 3.68535 43.6601 4.0211C44.1216 4.35686 44.4702 4.76413 44.7039 5.24492C45.0485 4.69857 45.514 4.27341 46.0983 3.97143C46.6826 3.66945 47.2708 3.51846 47.8611 3.51846C48.9188 3.51846 49.7705 3.83435 50.4162 4.46414C51.0619 5.09591 51.3847 6.00782 51.3847 7.20382V11.4176C51.3847 12.117 50.8202 12.6832 50.123 12.6832C49.4258 12.6832 48.8613 12.117 48.8613 11.4176V7.75811C48.8613 6.37337 48.3543 5.68001 47.3422 5.68001C46.841 5.68001 46.4073 5.8608 46.0389 6.22437C45.6764 6.58794 45.4922 7.12038 45.4922 7.82367Z" fill="#F2F2F2"/>
<path d="M62.6488 8.17731C62.6488 9.48456 62.1972 10.5852 61.296 11.4792C60.3948 12.3732 59.2599 12.8203 57.8971 12.8203C56.5325 12.8203 55.3995 12.3732 54.4983 11.4792C53.5971 10.5852 53.1455 9.48456 53.1455 8.17731C53.1455 6.87005 53.5971 5.76742 54.4983 4.86744C55.3995 3.96945 56.5325 3.51846 57.8971 3.51846C59.2618 3.51846 60.3948 3.96746 61.296 4.86744C62.1972 5.76742 62.6488 6.87005 62.6488 8.17731ZM55.6669 8.17731C55.6669 8.91438 55.8749 9.51437 56.2928 9.97926C56.7107 10.4422 57.2455 10.6746 57.8971 10.6746C58.5488 10.6746 59.0836 10.4422 59.5015 9.97926C59.9194 9.51635 60.1274 8.91636 60.1274 8.17731C60.1274 7.44024 59.9194 6.83628 59.5015 6.36741C59.0836 5.89855 58.5488 5.66411 57.8971 5.66411C57.2455 5.66411 56.7107 5.89855 56.2928 6.36741C55.8749 6.83628 55.6669 7.44024 55.6669 8.17731Z" fill="#F2F2F2"/>
<path d="M69.6802 3.51845C70.7716 3.51845 71.7243 3.94559 72.5363 4.79988C73.3484 5.65417 73.7564 6.75083 73.7564 8.09187C73.7564 9.4329 73.3385 10.5554 72.5027 11.4593C71.6668 12.3653 70.7181 12.8163 69.6545 12.8163C68.5908 12.8163 67.7074 12.3752 67.0063 11.4931C67.0063 12.1507 66.4755 12.6832 65.8199 12.6832H65.6872C65.0316 12.6832 64.5007 12.1507 64.5007 11.4931V1.5079C64.5007 0.814532 65.0613 0.250305 65.7545 0.250305C66.4458 0.250305 67.0083 0.812545 67.0083 1.5079V4.67472C67.6975 3.90387 68.5888 3.51845 69.6802 3.51845ZM66.9746 8.18524C66.9746 8.91635 67.1786 9.51435 67.5846 9.97726C67.9907 10.4402 68.4839 10.6726 69.0622 10.6726C69.6406 10.6726 70.1476 10.4402 70.5814 9.97726C71.0152 9.51435 71.2331 8.91834 71.2331 8.19319C71.2331 7.46804 71.0211 6.85812 70.5973 6.3674C70.1734 5.87668 69.6683 5.63033 69.0781 5.63033C68.4878 5.63033 67.9887 5.87271 67.5827 6.35945C67.1766 6.84421 66.9746 7.45413 66.9746 8.18524Z" fill="#F2F2F2"/>
<path d="M75.8361 2.52114C75.5529 2.23704 75.4103 1.88738 75.4103 1.47414C75.4103 1.06091 75.5529 0.711244 75.8361 0.427143C76.1194 0.143043 76.468 0 76.8799 0C77.2919 0 77.6405 0.143043 77.9238 0.427143C78.207 0.711244 78.3496 1.06091 78.3496 1.47414C78.3496 1.88738 78.207 2.23704 77.9238 2.52114C77.6405 2.80524 77.2919 2.94828 76.8799 2.94828C76.468 2.94828 76.1194 2.80723 75.8361 2.52114ZM76.8799 12.6832C76.1887 12.6832 75.6262 12.1209 75.6262 11.4256V4.92705C75.6262 4.23369 76.1867 3.66946 76.8799 3.66946C77.5712 3.66946 78.1337 4.2317 78.1337 4.92705V11.4276C78.1317 12.1209 77.5712 12.6832 76.8799 12.6832Z" fill="#F2F2F2"/>
<path d="M81.7583 12.6832C81.0671 12.6832 80.5046 12.1209 80.5046 11.4256V1.50789C80.5046 0.814532 81.0651 0.250305 81.7583 0.250305C82.4496 0.250305 83.0121 0.812545 83.0121 1.50789V11.4276C83.0101 12.1209 82.4496 12.6832 81.7583 12.6832Z" fill="#F2F2F2"/>
<path d="M92.4124 10.5594C92.8541 11.0382 92.7352 11.8011 92.1747 12.1309C91.4003 12.5898 90.5407 12.8183 89.5998 12.8183C88.2351 12.8183 87.1081 12.3971 86.2168 11.5527C85.3255 10.7104 84.8799 9.57794 84.8799 8.15943C84.8799 6.74091 85.3335 5.61246 86.2406 4.77407C87.1478 3.93568 88.2193 3.51648 89.4552 3.51648C90.6912 3.51648 91.7409 3.88998 92.6045 4.63897C93.4681 5.38796 93.8999 6.41509 93.8999 7.72235C93.8999 8.46339 93.3017 9.06338 92.5629 9.06338H87.3518C87.429 9.55609 87.6865 9.9574 88.1203 10.2693C88.554 10.5832 89.0452 10.7382 89.5899 10.7382C90.1762 10.7382 90.6932 10.6071 91.1408 10.3428C91.5567 10.1024 92.0876 10.2057 92.4124 10.5594ZM90.7605 6.03166C90.4159 5.7416 89.994 5.59657 89.4988 5.59657C89.0036 5.59657 88.5501 5.74756 88.1381 6.04954C87.7261 6.35152 87.4864 6.7588 87.4191 7.27335H91.3607C91.3072 6.73495 91.1051 6.32172 90.7605 6.03166Z" fill="#F2F2F2"/>
<path d="M96.958 12.6832C96.2668 12.6832 95.7043 12.1209 95.7043 11.4256V1.50789C95.7043 0.814532 96.2648 0.250305 96.958 0.250305C97.6493 0.250305 98.2118 0.812545 98.2118 1.50789V6.6356L100.66 4.01711C100.878 3.78467 101.181 3.65355 101.498 3.65355C102.506 3.65355 103.025 4.86147 102.336 5.59655L100.733 7.30711L103.015 10.756C103.562 11.5825 102.971 12.6851 101.983 12.6851C101.569 12.6851 101.181 12.4765 100.951 12.1309L99.0298 9.23423L98.2118 10.0885V11.4295C98.2118 12.1209 97.6493 12.6832 96.958 12.6832Z" fill="#F2F2F2"/>
<path d="M107.198 16.2354C106.669 16.2354 106.16 16.1063 105.667 15.848C105.101 15.552 104.914 14.8229 105.249 14.2765C105.527 13.8216 106.093 13.613 106.588 13.8116C106.772 13.8851 106.959 13.9229 107.149 13.9229C107.382 13.9229 107.582 13.8077 107.751 13.5792C107.917 13.3507 108 13.1064 108 12.8501C108 12.6196 107.065 10.1263 105.198 5.37208C104.877 4.55554 105.477 3.66947 106.352 3.66947C106.863 3.66947 107.323 3.98337 107.509 4.46018L109.389 9.28193L111.269 4.46018C111.455 3.98337 111.914 3.66748 112.425 3.66748C113.301 3.66748 113.903 4.55356 113.58 5.37009L110.074 14.2904C109.829 14.9043 109.448 15.3811 108.929 15.7229C108.408 16.0646 107.832 16.2354 107.198 16.2354Z" fill="#F2F2F2"/>
<path d="M121.915 12.6832H121.73C121.13 12.6832 120.645 12.1964 120.645 11.5945C119.999 12.409 119.199 12.8183 118.248 12.8183C117.296 12.8183 116.497 12.5421 115.852 11.9898C115.206 11.4375 114.883 10.7004 114.883 9.7786C114.883 8.85676 115.218 8.16737 115.885 7.70844C116.553 7.2515 117.466 7.02104 118.625 7.02104H120.496V6.97137C120.496 6.0098 119.989 5.531 118.977 5.531C118.543 5.531 118.084 5.61842 117.599 5.79126C117.42 5.85484 117.252 5.92437 117.094 5.99987C116.652 6.21046 116.123 6.07933 115.846 5.67404C115.505 5.17935 115.675 4.49394 116.21 4.22573C117.147 3.75687 118.175 3.52045 119.294 3.52045C120.385 3.52045 121.277 3.79461 121.966 4.34096C122.657 4.88731 123.002 5.75351 123.002 6.93759V11.5964C123 12.1964 122.515 12.6832 121.915 12.6832ZM120.479 9.24814V8.81305H118.908C117.906 8.81305 117.405 9.12695 117.405 9.75078C117.405 10.0746 117.523 10.323 117.763 10.4958C118.003 10.6686 118.345 10.7561 118.791 10.7561C119.237 10.7561 119.629 10.619 119.97 10.3448C120.308 10.0726 120.479 9.70707 120.479 9.24814Z" fill="#F2F2F2"/>
<path d="M14.4728 1.39267C6.48077 1.39267 0 7.89121 0 15.9096C0 23.928 6.48077 30.4265 14.4728 30.4265C22.4668 30.4265 28.9456 23.926 28.9456 15.9096C28.9456 7.89121 22.4668 1.39267 14.4728 1.39267ZM17.9826 21.971C17.9826 22.4061 17.626 22.7637 17.1923 22.7637H11.3156C10.8818 22.7637 10.5253 22.4061 10.5253 21.971V10.2872C10.5253 9.8521 10.8799 9.49449 11.3156 9.49449H17.1923C17.626 9.49449 17.9826 9.8521 17.9826 10.2872V21.971Z" fill="#F2F2F2"/>
</g>
<defs>
<clipPath id="clip0">
<rect width="123" height="32" fill="white"/>
</clipPath>
</defs>
</svg>
