<svg width="18" height="16" viewBox="0 0 18 16" fill="none" xmlns="http://www.w3.org/2000/svg">
<g clip-path="url(#clip0)">
<path d="M17.8763 5.50222V4.26889H15.2989V2.41556H13.3214V0H12.0054V2.41556H10.0326V0H8.71661V2.41556H6.74383V0H5.42785V2.41556H3.45269V4.26889H0.804138V5.50222H3.45269V7.35111H0.804138V8.58444H3.45269V10.4333H0.804138V11.6667H3.45269V13.5178H5.42785V16H6.74383V13.5178H8.71661V16H10.0326V13.5178H12.0054V16H13.3214V13.5178H15.2989V11.6667H17.8763V10.4333H15.2989V8.58444H17.8763V7.35111H15.2989V5.50222H17.8763ZM12.6669 11.0511H6.08465V4.88222H12.6669V11.0511ZM11.2632 6.07556H7.3129V9.77778H11.2632V6.07556Z" fill="#4F4F4F"/>
<path d="M11.2632 6.07556H7.3129V9.77778H11.2632V6.07556Z" fill="white"/>
<path d="M11.2632 6.07556H7.3129V9.77778H11.2632V6.07556Z" fill="#4F4F4F"/>
</g>
<defs>
<clipPath id="clip0">
<rect width="17.0722" height="16" fill="white" transform="translate(0.804138)"/>
</clipPath>
</defs>
</svg>
