<svg width="21" height="21" viewBox="0 0 21 21" fill="none" xmlns="http://www.w3.org/2000/svg">
<path fill-rule="evenodd" clip-rule="evenodd" d="M16.3646 14.2443C18.3041 11.7534 18.129 8.14958 15.8391 5.85969C13.3595 3.3801 9.33927 3.3801 6.85969 5.85969C4.3801 8.33927 4.3801 12.3595 6.85969 14.8391C9.14958 17.129 12.7534 17.3041 15.2443 15.3646C15.255 15.3768 15.2662 15.3887 15.2779 15.4003L18.6451 18.7675C18.9551 19.0775 19.4576 19.0775 19.7675 18.7675C20.0775 18.4576 20.0775 17.9551 19.7675 17.6451L16.4003 14.2779C16.3887 14.2662 16.3768 14.255 16.3646 14.2443ZM14.7166 6.98211C16.5763 8.8418 16.5763 11.857 14.7166 13.7166C12.857 15.5763 9.8418 15.5763 7.98211 13.7166C6.12242 11.857 6.12242 8.8418 7.98211 6.98211C9.8418 5.12242 12.857 5.12242 14.7166 6.98211Z" fill="#F2F2F2"/>
</svg>
