<svg width="15" height="14" viewBox="0 0 15 14" fill="none" xmlns="http://www.w3.org/2000/svg">
<path d="M12.6 4.2C13.7598 4.2 14.7 3.2598 14.7 2.1C14.7 0.940202 13.7598 0 12.6 0C11.4402 0 10.5 0.940202 10.5 2.1C10.5 3.2598 11.4402 4.2 12.6 4.2Z" fill="#828282"/>
<path d="M2.1 9.8001C3.2598 9.8001 4.2 8.8599 4.2 7.7001C4.2 6.5403 3.2598 5.6001 2.1 5.6001C0.940202 5.6001 0 6.5403 0 7.7001C0 8.8599 0.940202 9.8001 2.1 9.8001Z" fill="#828282"/>
<path d="M12.6 13.9998C13.7598 13.9998 14.7 13.0596 14.7 11.8998C14.7 10.74 13.7598 9.7998 12.6 9.7998C11.4402 9.7998 10.5 10.74 10.5 11.8998C10.5 13.0596 11.4402 13.9998 12.6 13.9998Z" fill="#828282"/>
<path d="M12.6 2.1001L2.45 7.7001L12.6 12.2501" stroke="#828282"/>
</svg>
