<svg width="13" height="22" viewBox="0 0 13 22" fill="none" xmlns="http://www.w3.org/2000/svg">
<path d="M3.41421 0.585786C2.63317 -0.195262 1.36683 -0.195262 0.585786 0.585786C-0.195262 1.36683 -0.195262 2.63317 0.585786 3.41421L3.41421 0.585786ZM11 11L12.4142 12.4142C13.1953 11.6332 13.1953 10.3668 12.4142 9.58579L11 11ZM0.585786 18.5858C-0.195262 19.3668 -0.195262 20.6332 0.585786 21.4142C1.36683 22.1953 2.63317 22.1953 3.41421 21.4142L0.585786 18.5858ZM0.585786 3.41421L9.58579 12.4142L12.4142 9.58579L3.41421 0.585786L0.585786 3.41421ZM9.58579 9.58579L0.585786 18.5858L3.41421 21.4142L12.4142 12.4142L9.58579 9.58579Z" fill="#E0E0E0"/>
</svg>
